<!--?xml version="1.0" encoding="utf-8"?-->
<!-- Generator: Adobe Illustrator 15.1.0, SVG Export Plug-In . SVG Version: 6.00 Build 0)  -->

<svg version="1.1" id="_x32_" xmlns="http://www.w3.org/2000/svg" xmlns:xlink="http://www.w3.org/1999/xlink" x="0px" y="0px" width="512px" height="512px" viewBox="0 0 512 512" style="width: 32px; height: 32px; opacity: 1;" xml:space="preserve">
<style type="text/css">

	.st0{fill:#4B4B4B;}

</style>
<g>
	<path class="st0" d="M203.955,203.83c13,0,23.531-10.547,23.531-23.563s-10.531-23.563-23.531-23.563
		c-13.031,0-23.563,10.547-23.563,23.563S190.924,203.83,203.955,203.83z" style="fill: rgb(0, 0, 0);"></path>
	<path class="st0" d="M308.064,203.83c13.016,0,23.547-10.547,23.547-23.563s-10.531-23.563-23.547-23.563
		c-13,0-23.547,10.547-23.547,23.563S295.064,203.83,308.064,203.83z" style="fill: rgb(0, 0, 0);"></path>
	<path class="st0" d="M507.643,344.533l-54.531-54.531c-3.625-3.625-8.922-5.141-13.906-3.969l-49.281,11.484
		c-0.094-7.625-1.5-14.813-4.109-21.5c7.125-2.188,13.703-4.688,19.766-7.516c17.922-8.313,31.469-19.891,39.938-34.219
		c7.5-12.563,10.875-26.672,11.578-41.375c40.063-29.875,39.828-100.563-8.313-139.078c-34.875-27.891-68.188-14.875-76.875-6.203
		c-2.188,2.172-4.313,12.328,16.125,32.234c47.094,45.859,14.859,61.969,14.859,61.969s-28.5-24.781-49.563-52.047
		c-3.422-4.422-14.406,6.688-14.891,26.016c-1.156,45.281,39,95.984,86.875,90.031c-0.359,1.375-0.719,2.75-1.156,4.031
		c-3.391,9.844-8.906,17.609-19.172,24.859c-8.547,6-20.734,11.328-37.266,15.422c-24.656-23-66.891-35.797-111.734-35.797
		c-44.828,0-87.078,12.813-111.75,35.813c-9.922-2.453-18.297-5.375-25.219-8.609c-13.859-6.516-21.844-13.938-26.984-22.469
		c-2.344-3.969-4.063-8.391-5.313-13.25c47.844,5.938,87.984-44.75,86.844-90.031c-0.5-19.328-11.469-30.438-14.891-26.016
		c-21.063,27.266-49.578,52.047-49.578,52.047s-32.234-16.109,14.875-61.969c20.438-19.906,18.297-30.063,16.125-32.234
		c-8.688-8.672-42-21.688-76.875,6.203c-48.172,38.547-48.375,109.281-8.266,139.109c0.438,9.125,1.844,17.984,4.688,26.422
		c5.156,15.547,15.375,29.438,30.344,39.766c10.016,6.969,22.031,12.5,36.219,16.859c-2.609,6.703-4.031,13.891-4.125,21.531
		l-49.281-11.484c-4.984-1.172-10.281,0.344-13.906,3.969L4.346,344.533c-5.797,5.813-5.797,15.234,0,21.047
		c5.828,5.813,15.234,5.813,21.047,0l48.703-48.703l51.922,12.109c0.875,4.563,1.813,8.875,2.859,12.953l-43.219,3.766
		c-5.406,0.469-10.109,3.813-12.297,8.75l-29.844,66.828c-3.344,7.5,0.016,16.297,7.516,19.641c7.5,3.359,16.297-0.016,19.641-7.516
		l26.281-58.828l42.188-3.672c2.344,4.766,4.891,9.047,7.641,12.906l-22.703,9.406c-5,2.078-8.484,6.688-9.094,12.063l-6.078,53.25
		c-0.938,8.156,4.938,15.531,13.094,16.469c8.156,0.922,15.531-4.938,16.469-13.094l5.078-44.547l28.078-11.625
		c21.422,11.063,84.359,8.828,84.359,8.828s62.969,2.234,84.391-8.828l28.078,11.625l5.078,44.547
		c0.922,8.156,8.313,14.016,16.469,13.094c8.156-0.938,14.031-8.313,13.078-16.469l-6.063-53.25
		c-0.609-5.375-4.094-9.984-9.094-12.063l-22.703-9.422c2.75-3.844,5.297-8.125,7.641-12.891l42.188,3.672l26.266,58.828
		c3.344,7.5,12.156,10.875,19.656,7.516c7.5-3.344,10.859-12.141,7.516-19.641l-29.844-66.828c-2.203-4.938-6.906-8.281-12.297-8.75
		l-43.219-3.766c1.047-4.078,1.984-8.391,2.859-12.953l51.922-12.109l48.703,48.703c5.797,5.813,15.219,5.813,21.031,0
		S513.455,350.346,507.643,344.533z" style="fill: rgb(0, 0, 0);"></path>
</g>
</svg>
