<svg xmlns="http://www.w3.org/2000/svg" viewBox="0 0 25 25" id="Fish-Fins--Streamline-Font-Awesome" height="25" width="25"><desc>Fish Fins Streamline Icon: https://streamlinehq.com</desc><!--! Font Awesome Free 6.5.2 by @fontawesome - https://fontawesome.com License - https://fontawesome.com/license/free (Icons: CC BY 4.0, Fonts: SIL OFL 1.1, Code: MIT License) Copyright 2024 Fonticons, Inc.--><path d="M11.956844618055555 3.245963541666667c-0.45089843749999997 -0.34029947916666664 -1.0634375 -0.3615668402777778 -1.5441102430555556 -0.06380642361111111s-0.7188845486111111 0.8677647569444444 -0.6082899305555556 1.4207552083333332l0.4126171875 2.067322048611111c-0.8252300347222222 0.3828385416666667 -1.5696354166666666 0.8464973958333333 -2.228967013888889 1.3399305555555554 -0.6508246527777777 0.48918402777777775 -1.2335894097222222 1.0166449652777778 -1.7312760416666664 1.5441102430555556l-3.9602430555555554 -2.3097829861111108c-0.53171875 -0.3105251736111111 -1.2080642361111111 -0.22545138888888888 -1.6419487847222223 0.2084331597222222S0.1229079861111111 8.558897569444444 0.42917968749999996 9.094869791666667l1.9482161458333331 3.4072569444444447 -1.9482161458333331 3.4072526041666666c-0.3062717013888889 0.5359765625 -0.21268663194444443 1.2080685763888888 0.22544704861111112 1.6419487847222223s1.110230034722222 0.5189583333333333 1.6419487847222223 0.2084331597222222l3.9602430555555554 -2.309787326388889c0.5019401041666667 0.5232118055555556 1.080451388888889 1.0549305555555555 1.7312760416666664 1.5441145833333332 0.6593315972222222 0.49343315972222224 1.4037369791666667 0.9570920138888889 2.228967013888889 1.3399305555555554l-0.4126171875 2.067322048611111c-0.11059461805555554 0.5529861111111111 0.13186631944444444 1.1187369791666666 0.6082899305555556 1.4165017361111112s1.0889583333333333 0.27649305555555553 1.5441102430555556 -0.06380642361111111l3.300911458333333 -2.475685763888889c2.335308159722222 -0.17014756944444442 4.317556423611111 -1.1485112847222223 5.836145833333333 -2.288515625 1.6674696180555555 -1.250603298611111 2.8585199652777775 -2.7521788194444445 3.4710590277777778 -3.807109375 0.24671875 -0.4211197916666667 0.24671875 -0.9443315972222223 0 -1.3654513888888888 -0.6125390625 -1.0549305555555555 -1.8078428819444445 -2.5565060763888887 -3.4710590277777778 -3.807109375 -1.5228428819444444 -1.1400043402777778 -3.500837673611111 -2.1183680555555555 -5.836145833333333 -2.288515625l-3.300911458333333 -2.475685763888889Zm4.628081597222222 9.256163194444444c0 -1.0478515624999998 1.1343315972222223 -1.7027604166666666 2.041801215277778 -1.1788324652777777 0.42115451388888886 0.24315538194444442 0.6805989583333333 0.6925217013888889 0.6805989583333333 1.1788324652777777 0 1.0478515624999998 -1.1343359375 1.7027604166666666 -2.041801215277778 1.1788324652777777 -0.42115885416666665 -0.24315538194444442 -0.6805989583333333 -0.6925217013888889 -0.6805989583333333 -1.1788324652777777Z" fill="#000000" stroke-width="0.0434"></path></svg>